PathFileType	4	(X/Y/Z)	E:\3-PhD\Data\MocapData\ElaboratedData\009\pre\dynamicElaborations\RunL1\RunL1.trc
DataRate	CameraRate	NumFrames	NumMarkers	Units	OrigDataRate	DataStartFrame
200	200	5	54	mm	200	438
Frame#	Time	FHD			LBHD			RBHD			C7			T10			CLAV			LSHO			LUUPA			LMUPA			LDUPA			LLEP			LMEP			LRAD			LUL			LRFIN			RSHO			RUPA1			RMUPA			RDUPA			RLEP			RMEP			RRAD			RUL			RUFIN			RASI			USACR			LSACR			RSACR			LTHI1			LTHI2			LTHI3			LTHI4			LTIB1			LTIB2			LTIB3			LTIB4			LLMAL			LHEE			LMT1			LMT2			RTHI			RTHI2			RTHI3			RTHI4			RLFC			RTIB1			RTIB2			RTIB3			RTIB4			RLMAL			RHEE			RMT1			RMT2			RMT5		
		X1	Y1	Z1	X2	Y2	Z2	X3	Y3	Z3	X4	Y4	Z4	X5	Y5	Z5	X6	Y6	Z6	X7	Y7	Z7	X8	Y8	Z8	X9	Y9	Z9	X10	Y10	Z10	X11	Y11	Z11	X12	Y12	Z12	X13	Y13	Z13	X14	Y14	Z14	X15	Y15	Z15	X16	Y16	Z16	X17	Y17	Z17	X18	Y18	Z18	X19	Y19	Z19	X20	Y20	Z20	X21	Y21	Z21	X22	Y22	Z22	X23	Y23	Z23	X24	Y24	Z24	X25	Y25	Z25	X26	Y26	Z26	X27	Y27	Z27	X28	Y28	Z28	X29	Y29	Z29	X30	Y30	Z30	X31	Y31	Z31	X32	Y32	Z32	X33	Y33	Z33	X34	Y34	Z34	X35	Y35	Z35	X36	Y36	Z36	X37	Y37	Z37	X38	Y38	Z38	X39	Y39	Z39	X40	Y40	Z40	X41	Y41	Z41	X42	Y42	Z42	X43	Y43	Z43	X44	Y44	Z44	X45	Y45	Z45	X46	Y46	Z46	X47	Y47	Z47	X48	Y48	Z48	X49	Y49	Z49	X50	Y50	Z50	X51	Y51	Z51	X52	Y52	Z52	X53	Y53	Z53	X54	Y54	Z54	

525	2.620000	-369.490487	1559.143190	436.576242	-543.924720	1598.644369	347.156466	-508.400611	1579.064952	467.003624	-634.907977	1464.035140	382.176863	-786.798157	1143.931800	344.346807	-522.134341	1334.469586	378.339719	-536.068246	1416.617632	235.918778	-618.287467	1283.232917	108.792595	-599.740136	1241.028264	118.933593	-642.382555	1223.564468	82.446003	-695.058377	1122.240460	47.096043	-745.289343	1111.351069	105.050790	-553.093195	938.830360	163.901445	-585.347179	888.852961	122.078976	-488.805344	908.476407	150.384368	-585.037323	1399.661631	543.432680	-709.911311	1299.878221	629.074301	-704.492991	1253.313973	630.057901	-762.267597	1260.458774	654.717516	-857.450866	1165.476523	684.627936	-876.387622	1150.891259	615.591942	-737.454011	929.134509	681.547707	-795.234216	917.533899	726.808425	-691.324041	903.201324	740.737075	-660.265901	943.925405	451.782766	-821.157527	1061.757094	344.817950	-830.158798	1029.477822	317.939632	-832.079320	1032.333500	376.656161	-761.507765	698.688024	149.110085	-748.127390	614.692251	146.377002	-703.995926	606.203932	161.659167	-789.116389	568.729541	149.110907	-945.599369	440.959855	209.838304	-971.090860	517.988140	173.602477	-984.360548	481.113861	191.724577	-1055.665473	503.943752	235.298881	-1172.723075	612.401866	248.920287	-1157.072342	691.956065	304.519252	-1290.353238	515.734850	325.537505	-1300.423912	518.621420	282.879670	-661.077216	716.476463	526.604655	-608.332270	678.920613	523.927199	-576.316177	689.226599	517.620420	-607.501395	596.490925	497.404796	-548.678827	506.464698	478.527240	-521.536308	295.753693	420.494493	-595.874351	221.247135	454.060187	-554.099342	216.770243	434.049990	-555.014995	173.989704	398.392953	-622.084396	88.425700	427.039267	-698.643644	48.609100	385.146397	-470.908511	56.343758	355.171550	-469.861655	55.935065	395.257087	-506.351814	35.535223	454.216399	
526	2.625000	-342.024369	1560.724302	435.537849	-516.961929	1598.724731	346.486829	-481.070267	1579.378319	466.261959	-607.602467	1463.708109	381.953225	-758.776245	1143.349835	344.639145	-494.169263	1334.247051	377.071631	-509.820100	1415.461919	234.002790	-594.095981	1280.434668	109.301295	-576.794033	1238.131900	120.551504	-618.832735	1220.449996	84.239129	-674.586985	1120.795207	49.359887	-723.217814	1110.334194	108.255951	-540.710005	925.137867	155.620172	-576.738125	879.089895	112.423243	-478.783177	890.934941	139.948903	-556.733110	1398.511562	543.086827	-675.750030	1293.390822	629.461520	-669.131180	1247.066471	629.668630	-725.547760	1252.257451	656.384710	-817.880593	1153.332435	688.015507	-838.358998	1138.575215	619.197070	-689.837871	922.234241	679.829644	-745.695725	907.781162	726.282981	-641.150310	897.334397	737.424896	-632.763726	943.561970	453.456668	-793.526483	1061.727305	344.985255	-802.331317	1029.187539	318.289574	-804.122894	1032.473721	377.024726	-723.187898	696.983650	148.804394	-706.707641	613.638758	145.935857	-662.623325	606.628586	162.048779	-746.001210	566.179946	147.613365	-896.785603	438.772572	208.211732	-922.065054	515.597464	171.413172	-935.421802	478.932395	189.877250	-1006.700194	502.290575	233.242772	-1123.553941	610.533122	246.423221	-1109.098756	691.427609	300.616849	-1240.661940	514.379833	324.361862	-1250.462347	516.296347	281.543472	-635.884342	715.593098	527.224693	-583.647009	677.374341	524.455488	-551.550368	687.326873	518.315311	-584.083487	594.940081	498.006337	-526.788905	504.265967	478.735561	-509.950416	292.116300	419.917045	-587.507511	221.116480	453.894205	-546.265140	214.422914	433.193855	-549.740206	172.044379	397.649820	-620.905069	89.918526	426.928729	-698.802411	50.032381	385.056484	-470.943059	56.022367	354.837993	-470.114312	55.626784	394.970332	-506.726662	35.840543	454.227894	
527	2.630000	-314.661597	1562.575713	434.513138	-490.022911	1599.217569	345.741374	-453.830450	1580.043133	465.447385	-580.256759	1463.869217	381.600083	-730.715358	1143.337184	345.049726	-466.354507	1334.477576	375.741642	-483.706458	1414.710468	232.126875	-569.904965	1278.266838	109.760815	-553.676039	1235.949746	121.861777	-595.185315	1218.034052	85.805734	-653.906740	1119.850656	51.537787	-700.888346	1109.600302	111.424120	-528.853180	913.147412	147.368610	-568.340630	871.196381	103.036220	-469.511544	875.464627	129.383409	-528.453101	1397.917080	542.543516	-641.700750	1287.860274	629.444393	-633.692105	1241.837064	628.953771	-688.765063	1244.950859	657.467201	-777.846326	1142.119081	690.791447	-799.803957	1127.045630	622.259434	-641.685357	916.808592	677.654452	-695.418741	899.503593	725.173372	-590.518645	893.147398	733.706449	-605.281622	943.652128	455.134016	-765.826668	1062.150559	345.271398	-774.479030	1029.426966	318.686588	-776.106217	1033.000925	377.439322	-684.871683	696.265900	148.622894	-665.028663	613.798697	145.608830	-621.039427	608.371805	162.539067	-702.405003	564.783022	146.335621	-847.327727	436.988521	206.860019	-872.765753	513.422588	169.423498	-886.024196	476.916988	188.229800	-957.439086	500.450686	231.273724	-1074.737036	607.851895	243.874806	-1062.090930	690.140399	296.630795	-1190.861049	511.529218	322.968752	-1200.263057	512.434696	279.963371	-611.004111	714.922769	527.845619	-559.384524	675.920259	524.945808	-527.235069	685.466624	518.806095	-561.426761	593.433817	498.751245	-506.326253	501.591168	479.123898	-499.189645	288.617594	419.522566	-579.594920	221.036783	454.037686	-538.978142	212.253954	432.575087	-544.940173	170.471751	397.192943	-619.761125	91.586474	427.199123	-698.936938	51.845284	385.208453	-471.066993	56.053990	354.766822	-470.400902	55.554123	394.923423	-507.113328	36.102014	454.304553	
528	2.635000	-287.396676	1564.679506	433.494210	-463.115157	1600.116793	344.921539	-426.677957	1581.061736	464.564937	-552.895546	1464.490217	381.146057	-702.577895	1143.784424	345.563837	-438.675129	1335.154553	374.346870	-457.728387	1414.395049	230.305215	-545.804637	1276.827992	110.109582	-530.380307	1234.530945	122.810832	-571.589186	1216.430528	87.078462	-633.040162	1119.509666	53.560907	-678.364772	1109.310219	114.470642	-517.356124	902.979291	139.219394	-560.058001	865.200570	94.084054	-460.817891	862.165590	118.770683	-500.146114	1397.915527	541.803372	-607.920426	1283.390463	629.089802	-598.317867	1237.727171	628.009878	-652.222676	1238.678310	658.031261	-737.494117	1132.029459	692.874667	-760.806548	1116.509490	624.697883	-593.116147	913.047152	674.986818	-644.515358	892.918330	723.394440	-539.571208	890.863445	729.576837	-577.754593	944.180891	456.696974	-737.960333	1062.944539	345.621114	-746.538955	1030.102761	319.092201	-747.993331	1033.849488	377.859155	-646.677915	696.507603	148.561496	-623.211935	615.175726	145.381348	-579.353938	611.453821	163.065922	-658.430744	564.551453	145.302880	-797.351993	435.681334	205.824047	-823.327583	511.525686	167.660226	-836.299002	475.130125	186.816164	-908.007110	498.483156	229.444386	-1026.378269	604.433632	241.330143	-1016.158393	688.106911	292.677218	-1141.025195	507.212069	321.344112	-1149.876577	507.106721	278.121362	-586.468025	714.363511	528.471130	-535.632485	674.396469	525.442641	-503.423399	683.411723	519.186272	-539.631782	591.871616	499.564871	-487.249057	498.384842	479.667317	-489.200359	285.265849	419.278691	-572.119047	221.006122	454.383603	-532.179849	210.295809	432.171839	-540.512416	169.237702	396.955510	-618.571197	93.427701	427.715458	-698.970008	54.096596	385.519454	-471.192481	56.252395	354.858350	-470.640378	55.580788	395.023787	-507.465740	36.285719	454.386563	
529	2.640000	-260.219332	1567.027548	432.472928	-436.245302	1601.414098	344.031685	-399.603644	1582.435734	463.621351	-525.557809	1465.522857	380.626579	-674.336096	1144.565383	346.159355	-411.110455	1336.265998	372.882854	-431.890686	1414.541664	228.536679	-521.891833	1276.181660	110.296203	-506.897106	1233.884261	123.398129	-548.191609	1215.714275	88.011031	-612.017734	1119.856239	55.367798	-655.713935	1109.612921	117.317226	-506.042672	894.704620	131.246233	-551.774004	861.092906	85.706128	-452.521076	851.088607	108.200599	-471.768780	1398.527017	540.879597	-574.514103	1280.017070	628.479947	-563.136184	1234.768581	626.941642	-616.186008	1233.532520	658.168999	-696.982795	1123.199685	694.213618	-721.463252	1107.126634	626.454021	-544.273081	911.100224	671.803453	-593.140259	888.198940	720.890983	-488.476310	890.658948	725.035066	-550.123999	945.097175	458.064302	-709.871851	1064.031296	345.990996	-718.466450	1031.118797	319.484276	-719.760908	1034.961895	378.261621	-608.697718	697.671026	148.628360	-581.376385	617.751668	145.261725	-537.674975	615.868375	163.579049	-614.191148	565.494469	144.531803	-747.000341	434.918788	205.128587	-773.888996	509.963178	166.142803	-786.385222	473.633717	185.664106	-858.530994	496.438898	227.804855	-978.567093	600.340801	238.837845	-971.365964	685.316957	288.866922	-1091.209422	501.472354	319.482066	-1099.344277	500.399693	276.007168	-562.279948	713.855344	529.094034	-512.436534	672.715693	525.968011	-480.140128	681.018147	519.515666	-518.723041	590.218611	500.385479	-469.381491	494.747130	480.312228	-479.926588	282.105629	419.210075	-565.096148	221.092312	454.858393	-525.837462	208.638225	432.017647	-536.370758	168.335963	396.927852	-617.288885	95.465900	428.370767	-698.845918	56.845419	385.924012	-471.266978	56.491560	355.031528	-470.786611	55.618566	395.202878	-507.762086	36.385109	454.432417	
